<?xml version="1.0" encoding="UTF-8"?>
<svg width="4141px" height="1699px" viewBox="0 0 4141 1699" version="1.1" xmlns="http://www.w3.org/2000/svg" xmlns:xlink="http://www.w3.org/1999/xlink">
    <!-- Generator: Sketch 51.3 (57544) - http://www.bohemiancoding.com/sketch -->
    <title>melted-frosty</title>
    <desc>Created with Sketch.</desc>
    <defs></defs>
    <g id="Page-1" stroke="none" stroke-width="1" fill="none" fill-rule="evenodd">
        <g id="melted-frosty" transform="translate(2.000000, 2.000000)">
            <path d="M1690.80993,1510.9422 C1313.32263,1510.9422 82.3692333,1859.6839 4.09375,1510.9422 C-74.1817333,1162.20051 1008.48975,976.565732 918.703027,755.566069 C828.9163,534.566406 -96.740338,727.11764 286.09375,255.96875 C668.927838,-215.18014 1502.47457,108.13718 1518.60159,109.158365 C1619.00352,115.515951 2008.62282,158.56597 2397.10938,134.609375 C2952.7696,100.343769 3537.45482,3.46445812 3648.5625,365.03125 C3849.82781,1019.98917 2923.79437,507.4983 2805.85057,834.182672 C2687.90677,1160.86704 4461.39355,1097.93869 4083.90625,1510.9422 C3706.41895,1923.94572 2068.29723,1510.9422 1690.80993,1510.9422 Z" id="Star" stroke="#979797" stroke-width="3" fill="#BCE0FF"></path>
            <path d="M884.5,523 C931.168061,523 969,484.048773 969,436 C969,387.951227 931.168061,349 884.5,349 C837.831939,349 800,387.951227 800,436 C800,484.048773 837.831939,523 884.5,523 Z M884.5,523 C931.168061,523 969,484.048773 969,436 C969,387.951227 931.168061,349 884.5,349 C837.831939,349 800,387.951227 800,436 C800,484.048773 837.831939,523 884.5,523 Z M884.5,523 C931.168061,523 969,484.048773 969,436 C969,387.951227 931.168061,349 884.5,349 C837.831939,349 800,387.951227 800,436 C800,484.048773 837.831939,523 884.5,523 Z" id="Oval-5" fill="#000000"></path>
            <path d="M1796.5,1461 C1843.16806,1461 1881,1422.04877 1881,1374 C1881,1325.95123 1843.16806,1287 1796.5,1287 C1749.83194,1287 1712,1325.95123 1712,1374 C1712,1422.04877 1749.83194,1461 1796.5,1461 Z M1796.5,1461 C1843.16806,1461 1881,1422.04877 1881,1374 C1881,1325.95123 1843.16806,1287 1796.5,1287 C1749.83194,1287 1712,1325.95123 1712,1374 C1712,1422.04877 1749.83194,1461 1796.5,1461 Z M1796.5,1461 C1843.16806,1461 1881,1422.04877 1881,1374 C1881,1325.95123 1843.16806,1287 1796.5,1287 C1749.83194,1287 1712,1325.95123 1712,1374 C1712,1422.04877 1749.83194,1461 1796.5,1461 Z" id="Oval-5" fill="#000000"></path>
            <path d="M1880.5,1092 C1927.16806,1092 1965,1053.04877 1965,1005 C1965,956.951227 1927.16806,918 1880.5,918 C1833.83194,918 1796,956.951227 1796,1005 C1796,1053.04877 1833.83194,1092 1880.5,1092 Z M1880.5,1092 C1927.16806,1092 1965,1053.04877 1965,1005 C1965,956.951227 1927.16806,918 1880.5,918 C1833.83194,918 1796,956.951227 1796,1005 C1796,1053.04877 1833.83194,1092 1880.5,1092 Z M1880.5,1092 C1927.16806,1092 1965,1053.04877 1965,1005 C1965,956.951227 1927.16806,918 1880.5,918 C1833.83194,918 1796,956.951227 1796,1005 C1796,1053.04877 1833.83194,1092 1880.5,1092 Z" id="Oval-5" fill="#000000"></path>
            <path d="M2222.5,918 C2269.16806,918 2307,879.048773 2307,831 C2307,782.951227 2269.16806,744 2222.5,744 C2175.83194,744 2138,782.951227 2138,831 C2138,879.048773 2175.83194,918 2222.5,918 Z M2222.5,918 C2269.16806,918 2307,879.048773 2307,831 C2307,782.951227 2269.16806,744 2222.5,744 C2175.83194,744 2138,782.951227 2138,831 C2138,879.048773 2175.83194,918 2222.5,918 Z M2222.5,918 C2269.16806,918 2307,879.048773 2307,831 C2307,782.951227 2269.16806,744 2222.5,744 C2175.83194,744 2138,782.951227 2138,831 C2138,879.048773 2175.83194,918 2222.5,918 Z" id="Oval-5" fill="#000000"></path>
            <path d="M2608.5,1005 C2655.16806,1005 2693,966.048773 2693,918 C2693,869.951227 2655.16806,831 2608.5,831 C2561.83194,831 2524,869.951227 2524,918 C2524,966.048773 2561.83194,1005 2608.5,1005 Z M2608.5,1005 C2655.16806,1005 2693,966.048773 2693,918 C2693,869.951227 2655.16806,831 2608.5,831 C2561.83194,831 2524,869.951227 2524,918 C2524,966.048773 2561.83194,1005 2608.5,1005 Z M2608.5,1005 C2655.16806,1005 2693,966.048773 2693,918 C2693,869.951227 2655.16806,831 2608.5,831 C2561.83194,831 2524,869.951227 2524,918 C2524,966.048773 2561.83194,1005 2608.5,1005 Z" id="Oval-5" fill="#000000"></path>
            <path d="M1964.5,436 C2011.16806,436 2049,397.048773 2049,349 C2049,300.951227 2011.16806,262 1964.5,262 C1917.83194,262 1880,300.951227 1880,349 C1880,397.048773 1917.83194,436 1964.5,436 Z M1964.5,436 C2011.16806,436 2049,397.048773 2049,349 C2049,300.951227 2011.16806,262 1964.5,262 C1917.83194,262 1880,300.951227 1880,349 C1880,397.048773 1917.83194,436 1964.5,436 Z M1964.5,436 C2011.16806,436 2049,397.048773 2049,349 C2049,300.951227 2011.16806,262 1964.5,262 C1917.83194,262 1880,300.951227 1880,349 C1880,397.048773 1917.83194,436 1964.5,436 Z" id="Oval-5" fill="#000000"></path>
            <g id="carrot" transform="translate(1210.121933, 933.121933) rotate(-45.000000) translate(-1210.121933, -933.121933) translate(711.621933, 851.621933)" stroke="#000000" stroke-width="3">
                <path d="M495.848426,-417.132994 L578.865393,522.14306 C585.604056,560.625691 557.931733,579.867006 495.848426,579.867006 C433.765118,579.867006 408.411453,560.625691 419.787431,522.14306 L495.848426,-417.132994 Z" id="Triangle" fill="#EA9B1A" fill-rule="nonzero" transform="translate(498.500000, 81.367006) rotate(-90.000000) translate(-498.500000, -81.367006) "></path>
                <path d="M921.265625,3.08984375 C942.937445,18.197286 955.6875,45.7551068 955.6875,82.0703125 C955.6875,117.801555 946.626939,145.298915 936.136719,159.988281" id="Path-8"></path>
                <path d="M840.984375,11.0546875 C856.368335,26.5968638 864.6875,50.473591 864.6875,81.0703125 C864.6875,113.749318 860.300213,137.628055 851.52564,152.706524" id="Path-8"></path>
                <path d="M758.546875,16.921875 C770.640625,42.3290005 776.6875,63.711813 776.6875,81.0703125 C776.6875,98.1816014 773.902243,119.886028 768.331729,146.183594" id="Path-8"></path>
                <path d="M675.601562,23.9921875 C684.388021,47.4176549 688.78125,66.4436966 688.78125,81.0703125 C688.78125,104.614301 686.503959,123.590372 681.949378,137.998524" id="Path-8"></path>
                <path d="M609.287167,31.4844676 C615.616556,44.9161534 618.78125,61.4447684 618.78125,81.0703125 C618.78125,101.213624 617.114309,118.013292 613.780428,131.469316" id="Path-8"></path>
                <path d="M532.890217,36.149169 C538.421739,49.0830119 541.1875,64.7233931 541.1875,83.0703125 C541.1875,100.302616 539.967542,115.087858 537.527625,127.426038" id="Path-8"></path>
                <path d="M465.855132,44.164333 C469.410044,55.3935972 471.1875,68.362257 471.1875,83.0703125 C471.1875,97.9423661 470.278842,110.991783 468.461527,122.218563" id="Path-8"></path>
                <path d="M405.519347,49.5428179 C408.024453,59.4381392 409.277007,70.559193 409.277007,82.9059795 C409.277007,95.7193236 408.602505,107.179713 407.2535,117.287148" id="Path-8"></path>
                <path d="M366.108712,51.752971 C368.257816,61.0857643 369.332368,71.4701005 369.332368,82.9059795 C369.332368,93.8644521 368.839015,103.833328 367.852307,112.812607" id="Path-8"></path>
                <path d="M316.484215,56.1937172 C318.015572,64.3485218 318.78125,73.2526092 318.78125,82.9059795 C318.78125,92.7913577 318.379788,101.87146 317.576863,110.146286" id="Path-8"></path>
                <path d="M276.885422,58.124305 C278.186215,65.7483934 278.836612,74.0089516 278.836612,82.9059795 C278.836612,91.3648726 278.542653,99.2341279 277.954737,106.513746" id="Path-8"></path>
                <path d="M226.58307,64.6403448 C227.718019,71.8402332 228.285493,79.5954447 228.285493,87.9059795 C228.285493,92.8957172 228.183208,97.680285 227.978637,102.259683" id="Path-8"></path>
                <path d="M176.986286,67.0539226 C177.789366,72.37141 178.190906,77.4934111 178.190906,82.4199257 C178.190906,84.6785263 178.190906,89.8005273 178.190906,97.7859287" id="Path-8"></path>
            </g>
        </g>
    </g>
</svg>